<svg width="227" height="62" viewBox="0 0 227 62" fill="none" xmlns="http://www.w3.org/2000/svg">
<path fill-rule="evenodd" clip-rule="evenodd" d="M8.92804 38.5399L8.66159 27.0251L0 38.5399H8.92804Z" fill="#1D3D30"/>
<path d="M10.5083 8.21682L33.5992 18.4875V8.21682C33.5992 3.18403 29.5355 0 23.0909 0H10.788C4.20244 0 3.43128e-05 3.18403 3.43128e-05 8.21682V17.0488C3.43128e-05 22.4933 3.78398 26.2942 7.28599 29.785C10.1301 32.5966 22.5158 48.2921 23.0909 51.5598L3.43128e-05 38.5152V51.5598C3.43128e-05 56.5926 4.0637 59.7766 10.5083 59.7766C10.7365 59.7766 10.9603 59.7717 11.1841 59.7651C11.4011 59.7717 11.6204 59.7766 11.8442 59.7766H22.8112C29.3967 59.7766 33.5992 56.5926 33.5992 51.5598V39.8505C33.5992 34.6127 29.8152 30.7102 26.3132 27.1144C23.4982 24.3339 11.1214 11.4386 10.5083 8.21682Z" fill="#1D3D30"/>
<path fill-rule="evenodd" clip-rule="evenodd" d="M23.223 18.4774L23.5326 31.8586L33.5981 18.4774H23.223Z" fill="#1D3D30"/>
<path d="M216.917 37.2218C211.111 37.2218 205.845 33.2085 205.845 26.0507C205.845 18.8102 211.153 14.8797 216.586 14.8797C222.06 14.8797 227.783 18.8102 226.912 27.3333H209.162C209.702 31.8431 213.144 34.2428 217.291 34.2428C219.82 34.2428 222.143 33.3326 223.718 31.6363L225.46 33.4154C223.511 35.8151 220.401 37.2218 216.917 37.2218ZM209.162 24.6854H223.843C223.594 20.2583 220.235 17.9 216.627 17.9C213.061 17.9 209.702 20.1756 209.162 24.6854Z" fill="#1D3D30"/>
<path d="M200.072 37.0563C197.211 37.0563 195.262 35.6496 195.262 32.4224V18.1482H192.359V15.2934H195.262V9.79064H198.745V15.2934H203.017V18.1482H198.745V31.7604C198.745 33.0844 199.409 33.9119 201.026 33.9119C201.524 33.9119 202.187 33.8291 202.975 33.5395V36.3116C202.229 36.8908 201.068 37.0563 200.072 37.0563Z" fill="#1D3D30"/>
<path d="M173.89 44.6692L177.456 36.6012L168.374 15.2934H171.982L179.156 32.5051L186.331 15.2934H189.939L180.774 36.8081L177.332 44.6692H173.89Z" fill="#1D3D30"/>
<path d="M147.309 36.8081V7.4323H157.386C162.653 7.4323 165.307 10.6181 165.307 14.3418C165.307 17.1966 163.772 19.555 160.952 20.5066C164.602 21.3754 167.007 24.1889 167.007 28.4091C167.007 33.2912 163.772 36.8081 157.013 36.8081H147.309ZM150.875 33.6222H156.805C161.284 33.6222 163.482 31.5949 163.482 28.1194C163.482 24.644 161.284 22.2857 156.764 22.2857H150.875V33.6222ZM150.875 19.4722H156.639C160.04 19.4722 161.865 17.569 161.865 14.8797C161.865 12.3145 160.164 10.6181 156.722 10.6181H150.875V19.4722Z" fill="#1D3D30"/>
<path d="M140.297 37.0563C137.435 37.0563 135.486 35.6496 135.486 32.4224V18.1482H132.583V15.2934H135.486V9.79064H138.97V15.2934H143.241V18.1482H138.97V31.7604C138.97 33.0844 139.633 33.9119 141.251 33.9119C141.748 33.9119 142.412 33.8291 143.2 33.5395V36.3116C142.453 36.8908 141.292 37.0563 140.297 37.0563Z" fill="#1D3D30"/>
<path d="M120.685 12.9351C120.685 7.72192 124.21 6.60482 126.781 6.60482C128.067 6.60482 129.269 6.89444 130.14 7.4323V10.2044C129.269 9.79064 128.274 9.62514 127.528 9.62514C125.537 9.62514 124.21 10.6181 124.21 13.3488V15.2934H130.14V18.1482H124.21V36.8081H120.685V18.1482H118.197V15.2934H120.685V12.9351Z" fill="#1D3D30"/>
<path d="M111.265 36.8081V15.2934H114.749V36.8081H111.265ZM111.265 10.6595V7.4323H114.749V10.6595H111.265Z" fill="#1D3D30"/>
<path d="M96.4654 36.8081L89.7057 19.5136L82.9461 36.8081H79.7114L71.5832 15.2934H75.1082L81.3702 32.4638L88.0469 15.2934H91.3645L98.0412 32.4638L104.303 15.2934H107.828L99.7 36.8081H96.4654Z" fill="#1D3D30"/>
<path d="M60.9707 37.2218C55.9943 37.2218 52.0961 34.2842 51.1008 30.064L54.0452 28.6987C54.8746 31.7604 57.4457 33.9119 60.9707 33.9119C64.081 33.9119 66.7766 32.2155 66.7766 28.8642C66.7766 25.8439 64.6201 24.5199 61.1781 23.1545L59.229 22.4098C54.9161 20.6721 52.3034 18.2724 52.3034 14.4659C52.3034 9.91476 55.9943 7.01856 60.7634 7.01856C65.6154 7.01856 68.4768 9.95613 69.638 13.142L66.901 14.5487C65.7398 11.9007 63.8322 10.2871 60.8463 10.2871C58.0263 10.2871 55.8699 11.8593 55.8699 14.5073C55.8699 16.576 57.114 18.1896 60.5975 19.555L62.5881 20.3411C67.3986 22.2443 70.4259 24.3958 70.4259 28.9056C70.4259 34.3256 65.9057 37.2218 60.9707 37.2218Z" fill="#1D3D30"/>
<path d="M85.7777 61.8913C83.6264 61.8913 82.2104 60.8318 82.4827 58.3051L83.3541 50.0189H81.3662L81.6385 47.601H83.5992L83.9804 43.9876H87.0031L86.6218 47.601H89.4811L89.236 50.0189H86.3767L85.5598 57.7618C85.4781 58.5768 85.8321 59.2017 86.9486 59.2017C87.2754 59.2017 87.7383 59.1474 88.2829 58.9572L88.0378 61.3208C87.4932 61.7555 86.5401 61.8913 85.7777 61.8913Z" fill="#1D3D30"/>
<path d="M69.8786 62C66.6925 62 63.6971 59.7722 63.6971 55.4525C63.6971 50.9426 66.9376 47.3293 71.1857 47.3293C73.8543 47.3293 75.5154 48.742 75.9511 49.8559H76.0872L76.3323 47.601H79.3277L77.8573 61.7283H74.8618L75.0797 59.4734H74.9435C74.3172 60.5873 72.411 62 69.8786 62ZM66.6925 55.208C66.6925 58.0606 68.7076 59.2832 70.7227 59.2832C73.2824 59.2832 75.706 57.2999 75.706 54.1213C75.706 51.2686 73.6909 50.0461 71.6758 50.0461C69.1161 50.0461 66.6925 52.0293 66.6925 55.208Z" fill="#1D3D30"/>
<path d="M50.4533 61.7283L52.4684 42.439H63.1429L62.8706 45.2917H55.2459L54.7013 50.6438H61.1006L60.8283 53.4149H54.4018L53.8299 58.8757H61.6452L61.3729 61.7283H50.4533Z" fill="#1D3D30"/>
</svg>
