<svg width="20" height="20" viewBox="0 0 20 20" fill="none" xmlns="http://www.w3.org/2000/svg">
<path fill-rule="evenodd" clip-rule="evenodd" d="M11.9362 0.242599C12.0916 0.0872618 12.3024 0 12.5221 0C12.7418 0 12.9526 0.0872618 13.108 0.242599L14.9448 2.08148C14.9453 2.08202 14.9459 2.08256 14.9464 2.08311C15.0938 2.22998 15.1804 2.42697 15.1891 2.63489C15.1978 2.84357 15.1274 3.04785 14.9918 3.20677L14.9912 3.20746L14.9906 3.20816C14.7808 3.4528 14.6711 3.76765 14.6833 4.08973C14.6956 4.41162 14.8289 4.71701 15.0565 4.94492C15.2848 5.17208 15.5903 5.3048 15.9121 5.31657C16.2342 5.32836 16.5488 5.21813 16.7932 5.00794L16.7942 5.00701L16.7953 5.00609C16.9542 4.87054 17.1585 4.80007 17.3672 4.80879C17.5752 4.8175 17.7723 4.90426 17.9192 5.05177C17.9197 5.05223 17.9201 5.05269 17.9206 5.05315L19.7574 6.88994C19.9127 7.04534 20 7.25608 20 7.47582C20 7.69556 19.9127 7.9063 19.7574 8.0617L16.8265 10.9926L16.8264 10.9927C16.6453 11.1738 16.4245 11.3104 16.1814 11.3914C16.1345 11.4072 16.0919 11.4336 16.0569 11.4687C16.0219 11.5038 15.9956 11.5466 15.98 11.5937L15.9798 11.5943L15.9796 11.5949C15.8986 11.8381 15.7621 12.0591 15.5811 12.2405L8.06378 19.7574C7.90838 19.9127 7.69765 20 7.4779 20C7.25816 20 7.04743 19.9127 6.89202 19.7574L5.05524 17.9206C5.05478 17.9201 5.05432 17.9197 5.05386 17.9192C4.90635 17.7723 4.81958 17.5752 4.81088 17.3672C4.80215 17.1585 4.87262 16.9542 5.00817 16.7953L5.0089 16.7945L5.00964 16.7936C5.21968 16.549 5.32959 16.2342 5.31738 15.912C5.30516 15.5899 5.17171 15.2842 4.94376 15.0562C4.7158 14.8283 4.41015 14.6948 4.08799 14.6826C3.76584 14.6704 3.45096 14.7803 3.2064 14.9904L3.20554 14.9911L3.20468 14.9918C3.04577 15.1274 2.84149 15.1978 2.6328 15.1891C2.42496 15.1804 2.22803 15.0938 2.08118 14.9466C2.08058 14.946 2.07999 14.9454 2.07939 14.9448L0.242599 13.108C0.0872618 12.9526 0 12.7418 0 12.5221C0 12.3024 0.0872618 12.0916 0.242599 11.9362L7.75945 4.42103C7.94066 4.24017 8.16136 4.10385 8.40419 4.02279M12.5219 1.54255L9.94801 4.11644C9.91316 4.15128 9.8869 4.19375 9.8713 4.24049C9.79057 4.48384 9.65431 4.70507 9.47331 4.88668C9.29206 5.06853 9.07094 5.20565 8.82747 5.28716L8.82702 5.2873L8.82658 5.28745C8.77946 5.30315 8.73663 5.32958 8.70147 5.36464L8.70136 5.36475L1.54239 12.5221L2.72404 13.7038C3.14964 13.4557 3.63981 13.3313 4.13852 13.3502C4.79657 13.3752 5.42092 13.6478 5.88657 14.1134C6.35222 14.5791 6.6248 15.2034 6.64976 15.8615C6.66867 16.3602 6.5443 16.8504 6.29621 17.276L7.47791 18.4577L14.6373 11.2986C14.6723 11.2636 14.6987 11.221 14.7144 11.1741C14.7951 10.9306 14.9314 10.7092 15.1125 10.5275C15.2938 10.3456 15.5149 10.2085 15.7584 10.127L15.7594 10.1267C15.8062 10.1111 15.8487 10.0848 15.8836 10.0499L15.8836 10.0498L18.4577 7.47582L17.2762 6.29436C16.8512 6.54251 16.3616 6.66725 15.8634 6.64902C15.2056 6.62496 14.5811 6.35349 14.1149 5.88889L14.1144 5.88843L14.114 5.88797C13.6486 5.42243 13.3761 4.79836 13.351 4.14057C13.3319 3.6419 13.4562 3.15173 13.7041 2.72607L12.5219 1.54255ZM11.9362 0.242599L11.9361 0.24271L11.9362 0.242599ZM11.9361 0.24271L9.00526 3.17356L11.9361 0.24271ZM9.00526 3.17356C8.8239 3.35489 8.68728 3.57597 8.60624 3.8193L8.60605 3.81987L8.60586 3.82044C8.59027 3.86752 8.56393 3.91031 8.52892 3.94544C8.49393 3.98055 8.4512 4.00704 8.40419 4.02279" fill="#1D3D30"/>
<path fill-rule="evenodd" clip-rule="evenodd" d="M8.61146 4.02565C8.87181 3.7653 9.29393 3.7653 9.55428 4.02565L10.2422 4.71357C10.5025 4.97392 10.5025 5.39603 10.2422 5.65638C9.98184 5.91673 9.55973 5.91673 9.29938 5.65638L8.61146 4.96846C8.35111 4.70811 8.35111 4.286 8.61146 4.02565ZM10.6746 6.08962C10.9348 5.82915 11.3569 5.82896 11.6174 6.08919L12.0762 6.54753C12.3366 6.80776 12.3368 7.22988 12.0766 7.49034C11.8164 7.75081 11.3942 7.751 11.1338 7.49077L10.675 7.03244C10.4146 6.7722 10.4144 6.35009 10.6746 6.08962ZM12.5096 7.92337C12.7701 7.66314 13.1922 7.66333 13.4524 7.9238L13.9108 8.38255C14.171 8.64302 14.1708 9.06513 13.9103 9.32537C13.6499 9.5856 13.2278 9.58541 12.9675 9.32494L12.5092 8.86618C12.249 8.60571 12.2491 8.1836 12.5096 7.92337ZM14.3436 9.75776C14.6039 9.49741 15.026 9.49741 15.2864 9.75776L15.9743 10.4457C16.2347 10.706 16.2347 11.1281 15.9743 11.3885C15.714 11.6488 15.2918 11.6488 15.0315 11.3885L14.3436 10.7006C14.0832 10.4402 14.0832 10.0181 14.3436 9.75776Z" fill="#1D3D30"/>
</svg>
