<svg width="11" height="11" viewBox="0 0 11 11" fill="none" xmlns="http://www.w3.org/2000/svg">
<g clip-path="url(#clip0_229_2272)">
<path d="M8.46486 10.3125C8.3925 10.3128 8.3219 10.2902 8.26312 10.2481L5.50001 8.24485L2.73691 10.2481C2.67787 10.2909 2.60676 10.3138 2.53383 10.3135C2.46091 10.3133 2.38996 10.2898 2.33124 10.2466C2.27252 10.2033 2.22907 10.1425 2.20718 10.073C2.18529 10.0034 2.18609 9.92869 2.20947 9.85962L3.28712 6.66768L0.494153 4.75235C0.433655 4.71091 0.387995 4.65121 0.363844 4.58197C0.339693 4.51273 0.338316 4.43758 0.359915 4.36751C0.381514 4.29743 0.424957 4.2361 0.483896 4.19247C0.542836 4.14884 0.614182 4.1252 0.687512 4.12501H4.13318L5.17302 0.92491C5.19542 0.855821 5.23913 0.795602 5.29787 0.752893C5.35662 0.710184 5.42738 0.68718 5.50001 0.68718C5.57264 0.68718 5.64341 0.710184 5.70215 0.752893C5.7609 0.795602 5.8046 0.855821 5.827 0.92491L6.86685 4.12608H10.3125C10.3859 4.12605 10.4574 4.14952 10.5166 4.19306C10.5757 4.23661 10.6193 4.29794 10.641 4.36807C10.6628 4.4382 10.6615 4.51345 10.6373 4.58279C10.6132 4.65214 10.5675 4.71193 10.5069 4.75343L7.7129 6.66768L8.78991 9.85876C8.80736 9.91042 8.81227 9.9655 8.80423 10.0194C8.7962 10.0734 8.77544 10.1246 8.74368 10.1689C8.71193 10.2133 8.67008 10.2494 8.6216 10.2744C8.57311 10.2993 8.51939 10.3124 8.46486 10.3125Z" fill="#F1E05E"/>
</g>
<defs>
<clipPath id="clip0_229_2272">
<rect width="11" height="11" fill="white"/>
</clipPath>
</defs>
</svg>
