<svg width="30" height="30" viewBox="0 0 30 30" fill="none" xmlns="http://www.w3.org/2000/svg">
<rect width="30" height="30" rx="15" fill="#F1E05E"/>
<path fill-rule="evenodd" clip-rule="evenodd" d="M9.58333 16.0834H20.4167C21.0147 16.0834 21.5 15.598 21.5 15C21.5 14.402 21.0147 13.9167 20.4167 13.9167H9.58333C8.98533 13.9167 8.5 14.402 8.5 15C8.5 15.598 8.98533 16.0834 9.58333 16.0834Z" fill="white"/>
<path fill-rule="evenodd" clip-rule="evenodd" d="M16.0834 20.4167V9.58333C16.0834 8.98533 15.5981 8.5 15.0001 8.5C14.4021 8.5 13.9167 8.98533 13.9167 9.58333V20.4167C13.9167 21.0147 14.4021 21.5 15.0001 21.5C15.5981 21.5 16.0834 21.0147 16.0834 20.4167Z" fill="white"/>
</svg>
