<svg width="94" height="94" viewBox="0 0 94 94" fill="none" xmlns="http://www.w3.org/2000/svg">
<circle cx="47" cy="46.631" r="46.631" fill="#23A26D" fill-opacity="0.12"/>
<path d="M46.1674 24.4258C33.9323 24.4258 23.9622 34.3959 23.9622 46.631C23.9622 58.8661 33.9323 68.8362 46.1674 68.8362C58.4025 68.8362 68.3726 58.8661 68.3726 46.631C68.3726 34.3959 58.4025 24.4258 46.1674 24.4258ZM56.7815 41.5238L44.1911 54.1142C43.8802 54.425 43.4584 54.6027 43.0142 54.6027C42.5701 54.6027 42.1482 54.425 41.8374 54.1142L35.5533 47.8301C34.9093 47.1861 34.9093 46.1203 35.5533 45.4763C36.1972 44.8324 37.2631 44.8324 37.907 45.4763L43.0142 50.5835L54.4277 39.1701C55.0717 38.5261 56.1375 38.5261 56.7815 39.1701C57.4254 39.814 57.4254 40.8577 56.7815 41.5238Z" fill="#23A26D"/>
</svg>
