<svg width="20" height="20" viewBox="0 0 20 20" fill="none" xmlns="http://www.w3.org/2000/svg">
<path fill-rule="evenodd" clip-rule="evenodd" d="M2.69231 4.6154C2.38629 4.6154 2.0928 4.73696 1.87641 4.95335C1.66003 5.16974 1.53846 5.46322 1.53846 5.76924V17.3077C1.53846 17.6137 1.66003 17.9072 1.87641 18.1236C2.0928 18.34 2.38629 18.4615 2.69231 18.4615H14.2308C14.3823 18.4615 14.5323 18.4317 14.6723 18.3737C14.8123 18.3157 14.9395 18.2307 15.0467 18.1236C15.1538 18.0164 15.2388 17.8892 15.2968 17.7493C15.3548 17.6093 15.3846 17.4592 15.3846 17.3077V8.46155C15.3846 8.03671 15.729 7.69232 16.1538 7.69232C16.5787 7.69232 16.9231 8.03671 16.9231 8.46155V17.3077C16.9231 17.6613 16.8534 18.0114 16.7181 18.338C16.5828 18.6646 16.3845 18.9614 16.1345 19.2114C15.8845 19.4614 15.5877 19.6598 15.2611 19.7951C14.9344 19.9304 14.5843 20 14.2308 20H2.69231C1.97826 20 1.29346 19.7163 0.788558 19.2114C0.283653 18.7065 0 18.0217 0 17.3077V5.76924C0 5.0552 0.283653 4.3704 0.788558 3.86549C1.29346 3.36059 1.97826 3.07693 2.69231 3.07693H10.7442C11.1691 3.07693 11.5135 3.42133 11.5135 3.84617C11.5135 4.271 11.1691 4.6154 10.7442 4.6154H2.69231Z" fill="#1D3D30"/>
<path d="M19.8048 0.252418C19.7346 0.175226 19.6494 0.113079 19.5544 0.069733C19.4595 0.0263867 19.3567 0.00274094 19.2524 0.000224464C19.1481 -0.00229201 19.0443 0.016373 18.9474 0.0550919C18.8504 0.0938107 18.7624 0.151779 18.6885 0.225495L18.0938 0.817321C18.0217 0.889443 17.9812 0.987234 17.9812 1.0892C17.9812 1.19116 18.0217 1.28895 18.0938 1.36107L18.6389 1.9053C18.6747 1.94121 18.7172 1.9697 18.7639 1.98914C18.8107 2.00858 18.8609 2.01859 18.9115 2.01859C18.9622 2.01859 19.0124 2.00858 19.0591 1.98914C19.1059 1.9697 19.1484 1.94121 19.1841 1.9053L19.7639 1.32838C20.0572 1.03559 20.0846 0.558668 19.8048 0.252418ZM16.8914 2.01924L8.21251 10.6827C8.15989 10.7351 8.12165 10.8002 8.10145 10.8716L7.70001 12.0673C7.6904 12.0998 7.68971 12.1342 7.69804 12.167C7.70637 12.1998 7.72339 12.2297 7.74732 12.2537C7.77125 12.2776 7.80119 12.2946 7.83399 12.3029C7.86679 12.3113 7.90122 12.3106 7.93367 12.301L9.12838 11.8995C9.19984 11.8793 9.26491 11.8411 9.31732 11.7885L17.9808 3.10867C18.0609 3.02766 18.1059 2.9183 18.1059 2.80434C18.1059 2.69038 18.0609 2.58102 17.9808 2.50001L17.5024 2.01924C17.4213 1.93836 17.3114 1.89294 17.1969 1.89294C17.0823 1.89294 16.9725 1.93836 16.8914 2.01924Z" fill="#1D3D30"/>
</svg>
