<svg width="37" height="37" viewBox="0 0 37 37" fill="none" xmlns="http://www.w3.org/2000/svg">
<path d="M18.5 17.1875C19.2249 17.1875 19.8125 16.5999 19.8125 15.875C19.8125 15.1501 19.2249 14.5625 18.5 14.5625C17.7751 14.5625 17.1875 15.1501 17.1875 15.875C17.1875 16.5999 17.7751 17.1875 18.5 17.1875Z" fill="#1D3D30"/>
<path d="M18.5 9.3125C14.8816 9.3125 11.9375 12.1282 11.9375 15.5879C11.9375 17.2355 12.6885 19.4265 14.1696 22.1004C15.359 24.2471 16.7351 26.1884 17.4508 27.1543C17.5718 27.3193 17.7299 27.4536 17.9124 27.5461C18.0949 27.6386 18.2966 27.6868 18.5012 27.6868C18.7058 27.6868 18.9076 27.6386 19.0901 27.5461C19.2726 27.4536 19.4307 27.3193 19.5516 27.1543C20.2661 26.1884 21.6434 24.2471 22.8329 22.1004C24.3115 19.4274 25.0625 17.2363 25.0625 15.5879C25.0625 12.1282 22.1184 9.3125 18.5 9.3125ZM18.5 18.5C17.9808 18.5 17.4733 18.346 17.0416 18.0576C16.6099 17.7692 16.2735 17.3592 16.0748 16.8795C15.8761 16.3999 15.8242 15.8721 15.9254 15.3629C16.0267 14.8537 16.2767 14.386 16.6438 14.0188C17.011 13.6517 17.4787 13.4017 17.9879 13.3004C18.4971 13.1992 19.0249 13.2511 19.5045 13.4498C19.9842 13.6485 20.3942 13.9849 20.6826 14.4166C20.971 14.8483 21.125 15.3558 21.125 15.875C21.1242 16.571 20.8474 17.2382 20.3553 17.7303C19.8632 18.2224 19.196 18.4992 18.5 18.5Z" fill="#1D3D30"/>
</svg>
