<svg width="44" height="30" viewBox="0 0 44 30" fill="none" xmlns="http://www.w3.org/2000/svg">
<rect x="0.625" y="0.625" width="42.75" height="28.75" rx="4.375" fill="#FBFBFB"/>
<rect x="0.625" y="0.625" width="42.75" height="28.75" rx="4.375" stroke="#1D3D30" stroke-width="1.25"/>
<path fill-rule="evenodd" clip-rule="evenodd" d="M20.9739 10.5897H25.7027C28.2417 10.5897 29.1975 11.8675 29.0498 13.7447C28.8056 16.8438 26.9209 18.5584 24.421 18.5584H23.1589C22.8159 18.5584 22.5852 18.7841 22.4924 19.3957L21.9565 22.9511C21.9211 23.1816 21.7991 23.3151 21.616 23.3333H18.6449C18.3653 23.3333 18.2665 23.121 18.3397 22.6611L20.1512 11.2632C20.222 10.8069 20.4734 10.5897 20.9739 10.5897Z" fill="#F1E05E"/>
<path fill-rule="evenodd" clip-rule="evenodd" d="M18.0164 6.66666H22.7501C24.0831 6.66666 25.6651 6.70913 26.7222 7.63741C27.4289 8.25748 27.8 9.24401 27.7146 10.307C27.424 13.9 25.2623 15.9131 22.362 15.9131H20.0281C19.6301 15.9131 19.3677 16.1752 19.2554 16.8839L18.6035 21.0096C18.5608 21.2765 18.4449 21.4343 18.2374 21.4537H15.3163C14.9928 21.4537 14.8781 21.211 14.9623 20.6747L17.0619 7.45054C17.1461 6.91905 17.4403 6.66666 18.0164 6.66666Z" fill="#1D3D30" fill-opacity="0.76"/>
<path fill-rule="evenodd" clip-rule="evenodd" d="M19.324 16.4653L20.1504 11.2632C20.2224 10.807 20.4738 10.5885 20.9743 10.5885H25.7032C26.4856 10.5885 27.1191 10.7099 27.6147 10.9344C27.1399 14.133 25.0586 15.9095 22.3341 15.9095H20.0039C19.6914 15.9107 19.4619 16.066 19.324 16.4653Z" fill="#1D3D30"/>
</svg>
