<svg width="42" height="40" viewBox="0 0 42 40" fill="none" xmlns="http://www.w3.org/2000/svg">
<g clip-path="url(#clip0_288_2476)">
<path d="M15.9478 13.7683L10.4493 26.2633H6.86175L4.158 16.2917C3.99175 15.6767 3.85 15.4533 3.3495 15.1917C2.53225 14.7717 1.1865 14.3767 0 14.13L0.08225 13.7667H5.8555C6.59225 13.7667 7.25375 14.235 7.42 15.04L8.84975 22.2717L12.3812 13.7667H15.9478V13.7683ZM30.002 22.1817C30.0177 18.8867 25.214 18.7067 25.249 17.2317C25.2578 16.7817 25.7057 16.305 26.6875 16.185C27.174 16.1233 28.5145 16.0783 30.0352 16.7417L30.6303 14.0933C29.813 13.81 28.7612 13.54 27.4557 13.54C24.101 13.54 21.7402 15.2383 21.721 17.67C21.6982 19.4683 23.4062 20.4717 24.6925 21.07C26.0138 21.6833 26.4565 22.0733 26.4513 22.6233C26.4425 23.4617 25.396 23.8283 24.4212 23.845C22.715 23.87 21.7245 23.405 20.9335 23.055L20.3193 25.795C21.1103 26.1417 22.5767 26.4417 24.094 26.46C27.6587 26.46 29.9915 24.7783 30.002 22.1817ZM38.8605 26.2617H42L39.2612 13.7667H36.3633C35.7122 13.7667 35.1628 14.1283 34.9177 14.6833L29.8288 26.2617H33.3918L34.0988 24.395H38.4528L38.8605 26.2617ZM35.0735 21.835L36.8602 17.1433L37.8875 21.835H35.0735ZM20.797 13.7683L17.9883 26.2633H14.595L17.4037 13.7683H20.797Z" fill="#1D3D30"/>
</g>
<defs>
<clipPath id="clip0_288_2476">
<rect width="42" height="40" fill="white"/>
</clipPath>
</defs>
</svg>
