<svg width="44" height="30" viewBox="0 0 44 30" fill="none" xmlns="http://www.w3.org/2000/svg">
<rect x="0.625" y="0.625" width="42.75" height="28.75" rx="4.375" fill="#FBFBFB"/>
<rect x="0.625" y="0.625" width="42.75" height="28.75" rx="4.375" stroke="#1D3D30" stroke-width="1.25"/>
<path d="M19.4648 10.4619H24.5346V19.5381H19.4648V10.4619Z" fill="#1D3D30" fill-opacity="0.43"/>
<path d="M19.787 15C19.787 13.1559 20.6561 11.5202 21.9919 10.4619C21.0102 9.69216 19.771 9.22714 18.4191 9.22714C15.2162 9.22714 12.625 11.8089 12.625 15C12.625 18.1911 15.2162 20.7729 18.419 20.7729C19.7709 20.7729 21.0101 20.3079 21.9919 19.5381C20.6561 18.4958 19.787 16.8441 19.787 15Z" fill="#1D3D30"/>
<path d="M31.3748 15C31.3748 18.1911 28.7837 20.7728 25.5809 20.7728C24.2289 20.7728 22.9897 20.3078 22.0079 19.538C23.3599 18.4797 24.2129 16.8441 24.2129 15C24.2129 13.1559 23.3437 11.5202 22.0079 10.4618C22.9896 9.69213 24.2289 9.22711 25.5809 9.22711C28.7837 9.22711 31.3748 11.8249 31.3748 15Z" fill="#F1E05E"/>
</svg>
