<svg width="20" height="19" viewBox="0 0 20 19" fill="none" xmlns="http://www.w3.org/2000/svg">
<path d="M10.3791 15.3911L14.7134 18.1371C15.2674 18.4881 15.9553 17.9661 15.7909 17.3194L14.5386 12.3932C14.5033 12.256 14.5075 12.1116 14.5507 11.9767C14.5938 11.8418 14.6741 11.7217 14.7825 11.6304L18.6692 8.39545C19.1799 7.97039 18.9163 7.12283 18.2601 7.08024L13.1843 6.75082C13.0476 6.74105 12.9165 6.69265 12.8062 6.61124C12.6959 6.52984 12.6111 6.41878 12.5615 6.291L10.6684 1.52379C10.617 1.38817 10.5255 1.27141 10.4061 1.18902C10.2867 1.10663 10.1451 1.0625 10 1.0625C9.85495 1.0625 9.71332 1.10663 9.59394 1.18902C9.47455 1.27141 9.38305 1.38817 9.3316 1.52379L7.43854 6.291C7.38894 6.41878 7.30406 6.52984 7.19379 6.61124C7.08351 6.69265 6.95238 6.74105 6.81567 6.75082L1.73986 7.08024C1.08372 7.12283 0.820131 7.97039 1.33083 8.39545L5.21755 11.6304C5.32587 11.7217 5.40621 11.8418 5.44935 11.9767C5.49249 12.1116 5.49667 12.256 5.4614 12.3932L4.30006 16.9617C4.10278 17.7377 4.92822 18.3642 5.59306 17.943L9.62093 15.3911C9.73421 15.319 9.86571 15.2807 10 15.2807C10.1343 15.2807 10.2658 15.319 10.3791 15.3911V15.3911Z" stroke="black" stroke-linecap="round" stroke-linejoin="round"/>
</svg>
